<svg xmlns="http://www.w3.org/2000/svg" width="1510" height="1510" viewBox="0 0 1510 1510">
<rect width="1510" height="1510" fill="#f8fafc"/>
<defs><marker id="arrow" viewBox="0 0 10 10" refX="9" refY="5" markerWidth="7" markerHeight="7" orient="auto"><path d="M 0 0 L 10 5 L 0 10 z" fill="#52627a"/></marker></defs>
<text x="40" y="42" font-family="sans-serif" font-size="26" font-weight="bold" fill="#132338">WOK | Facturacion, cuentas y pagos</text>
<text x="40" y="75" font-family="sans-serif" font-size="13" fill="#44556b">Vista parcial del modelo de 109 tablas. Flecha: tabla hija -&gt; padre. NULL/UNIQUE determinan cardinalidad.</text>
<path d="M 550 210 L 440 210" fill="none" stroke="#52627a" stroke-width="2" marker-end="url(#arrow)"/>
<text x="495.0" y="201.0" text-anchor="middle" font-family="sans-serif" font-size="10" fill="#34465d">order_id (0..N / 1)</text>
<path d="M 950 260 L 1060 260" fill="none" stroke="#52627a" stroke-width="2" marker-end="url(#arrow)"/>
<text x="1005.0" y="251.0" text-anchor="middle" font-family="sans-serif" font-size="10" fill="#34465d">bill_id (0..N / 1)</text>
<path d="M 1350 600 L 1350 445" fill="none" stroke="#52627a" stroke-width="2" marker-end="url(#arrow)"/>
<text x="1343.0" y="522.5" text-anchor="middle" font-family="sans-serif" font-size="10" fill="#34465d" transform="rotate(-90 1343.0 522.5)">bill_id (0..N / 1)</text>
<path d="M 840 600 L 840 500 L 1180 500 L 1180 445" fill="none" stroke="#52627a" stroke-width="2" marker-end="url(#arrow)"/>
<text x="833.0" y="550.0" text-anchor="middle" font-family="sans-serif" font-size="10" fill="#34465d" transform="rotate(-90 833.0 550.0)">bill_id (0..N / 1)</text>
<path d="M 440 710 L 550 710" fill="none" stroke="#52627a" stroke-width="2" marker-end="url(#arrow)"/>
<text x="495.0" y="701.0" text-anchor="middle" font-family="sans-serif" font-size="10" fill="#34465d">invoice_id (0..N / 1)</text>
<path d="M 350 600 L 350 545 L 1270 545 L 1270 600" fill="none" stroke="#52627a" stroke-width="2" marker-end="url(#arrow)"/>
<text x="343.0" y="572.5" text-anchor="middle" font-family="sans-serif" font-size="10" fill="#34465d" transform="rotate(-90 343.0 572.5)">bill_item_id (0..N / 0..1)</text>
<path d="M 550 850 L 490 850 L 490 920 L 550 920" fill="none" stroke="#52627a" stroke-width="2" marker-end="url(#arrow)"/>
<text x="483.0" y="885.0" text-anchor="middle" font-family="sans-serif" font-size="10" fill="#34465d" transform="rotate(-90 483.0 885.0)">original_invoice_id (0..N / 0..1)</text>
<path d="M 1460 1280 L 1490 1280 L 1490 380 L 1460 380" fill="none" stroke="#52627a" stroke-width="2" marker-end="url(#arrow)"/>
<text x="1483.0" y="830.0" text-anchor="middle" font-family="sans-serif" font-size="10" fill="#34465d" transform="rotate(-90 1483.0 830.0)">bill_id (0..N / 1)</text>
<path d="M 950 1220 L 1060 1220" fill="none" stroke="#52627a" stroke-width="2" marker-end="url(#arrow)"/>
<text x="1005.0" y="1211.0" text-anchor="middle" font-family="sans-serif" font-size="10" fill="#34465d">payment_id (0..1 / 1)</text>
<rect x="40" y="100" width="400" height="345" rx="10" fill="white" stroke="#8a9bb0"/>
<text x="58" y="130" font-family="monospace" font-size="19" font-weight="bold" fill="#173653">orders</text>
<path d="M 40 147 H 440" stroke="#cbd5e1"/>
<text x="58" y="178" font-family="monospace" font-size="15" fill="#334155">PK id</text>
<text x="58" y="205" font-family="monospace" font-size="15" fill="#334155">FK customer_id ?</text>
<text x="58" y="232" font-family="monospace" font-size="15" fill="#334155">   channel</text>
<text x="58" y="259" font-family="monospace" font-size="15" fill="#334155">   order_type</text>
<text x="58" y="286" font-family="monospace" font-size="15" fill="#334155">   status</text>
<text x="58" y="313" font-family="monospace" font-size="15" fill="#334155">FK currency_id</text>
<text x="58" y="340" font-family="monospace" font-size="15" fill="#334155">   accepted_at ?</text>
<rect x="550" y="100" width="400" height="345" rx="10" fill="white" stroke="#8a9bb0"/>
<text x="568" y="130" font-family="monospace" font-size="19" font-weight="bold" fill="#173653">bill_orders</text>
<path d="M 550 147 H 950" stroke="#cbd5e1"/>
<text x="568" y="178" font-family="monospace" font-size="15" fill="#334155">PK id</text>
<text x="568" y="205" font-family="monospace" font-size="15" fill="#334155">FK bill_id</text>
<text x="568" y="232" font-family="monospace" font-size="15" fill="#334155">FK order_id</text>
<rect x="1060" y="100" width="400" height="345" rx="10" fill="white" stroke="#8a9bb0"/>
<text x="1078" y="130" font-family="monospace" font-size="19" font-weight="bold" fill="#173653">bills</text>
<path d="M 1060 147 H 1460" stroke="#cbd5e1"/>
<text x="1078" y="178" font-family="monospace" font-size="15" fill="#334155">PK id</text>
<text x="1078" y="205" font-family="monospace" font-size="15" fill="#334155">FK customer_id ?</text>
<text x="1078" y="232" font-family="monospace" font-size="15" fill="#334155">FK currency_id</text>
<text x="1078" y="259" font-family="monospace" font-size="15" fill="#334155">   status</text>
<text x="1078" y="286" font-family="monospace" font-size="15" fill="#334155">   issued_at ?</text>
<text x="1078" y="313" font-family="monospace" font-size="15" fill="#334155">   closed_at ?</text>
<rect x="40" y="600" width="400" height="345" rx="10" fill="white" stroke="#8a9bb0"/>
<text x="58" y="630" font-family="monospace" font-size="19" font-weight="bold" fill="#173653">invoice_items</text>
<path d="M 40 647 H 440" stroke="#cbd5e1"/>
<text x="58" y="678" font-family="monospace" font-size="15" fill="#334155">PK id</text>
<text x="58" y="705" font-family="monospace" font-size="15" fill="#334155">FK invoice_id</text>
<text x="58" y="732" font-family="monospace" font-size="15" fill="#334155">FK bill_item_id ?</text>
<text x="58" y="759" font-family="monospace" font-size="15" fill="#334155">   description_snapshot</text>
<text x="58" y="786" font-family="monospace" font-size="15" fill="#334155">   quantity</text>
<text x="58" y="813" font-family="monospace" font-size="15" fill="#334155">   unit_price</text>
<text x="58" y="840" font-family="monospace" font-size="15" fill="#334155">   tax_amount</text>
<text x="58" y="867" font-family="monospace" font-size="15" fill="#334155">   line_total</text>
<rect x="550" y="600" width="400" height="345" rx="10" fill="white" stroke="#8a9bb0"/>
<text x="568" y="630" font-family="monospace" font-size="19" font-weight="bold" fill="#173653">invoices</text>
<path d="M 550 647 H 950" stroke="#cbd5e1"/>
<text x="568" y="678" font-family="monospace" font-size="15" fill="#334155">PK id</text>
<text x="568" y="705" font-family="monospace" font-size="15" fill="#334155">FK bill_id</text>
<text x="568" y="732" font-family="monospace" font-size="15" fill="#334155">   document_type</text>
<text x="568" y="759" font-family="monospace" font-size="15" fill="#334155">FK original_invoice_id ?</text>
<text x="568" y="786" font-family="monospace" font-size="15" fill="#334155">   series ?</text>
<text x="568" y="813" font-family="monospace" font-size="15" fill="#334155">   document_number ?</text>
<text x="568" y="840" font-family="monospace" font-size="15" fill="#334155">   status</text>
<text x="568" y="867" font-family="monospace" font-size="15" fill="#334155">   total</text>
<text x="568" y="894" font-family="monospace" font-size="15" fill="#334155">   external_authorization ?</text>
<rect x="1060" y="600" width="400" height="345" rx="10" fill="white" stroke="#8a9bb0"/>
<text x="1078" y="630" font-family="monospace" font-size="19" font-weight="bold" fill="#173653">bill_items</text>
<path d="M 1060 647 H 1460" stroke="#cbd5e1"/>
<text x="1078" y="678" font-family="monospace" font-size="15" fill="#334155">PK id</text>
<text x="1078" y="705" font-family="monospace" font-size="15" fill="#334155">FK bill_id</text>
<text x="1078" y="732" font-family="monospace" font-size="15" fill="#334155">FK order_item_id ?</text>
<text x="1078" y="759" font-family="monospace" font-size="15" fill="#334155">   line_type</text>
<text x="1078" y="786" font-family="monospace" font-size="15" fill="#334155">   quantity</text>
<text x="1078" y="813" font-family="monospace" font-size="15" fill="#334155">   unit_price</text>
<text x="1078" y="840" font-family="monospace" font-size="15" fill="#334155">   tax_amount</text>
<text x="1078" y="867" font-family="monospace" font-size="15" fill="#334155">   voided_at ?</text>
<rect x="550" y="1100" width="400" height="345" rx="10" fill="white" stroke="#8a9bb0"/>
<text x="568" y="1130" font-family="monospace" font-size="19" font-weight="bold" fill="#173653">payment_receipts</text>
<path d="M 550 1147 H 950" stroke="#cbd5e1"/>
<text x="568" y="1178" font-family="monospace" font-size="15" fill="#334155">PK id</text>
<text x="568" y="1205" font-family="monospace" font-size="15" fill="#334155">FK payment_id</text>
<text x="568" y="1232" font-family="monospace" font-size="15" fill="#334155">   receipt_number</text>
<text x="568" y="1259" font-family="monospace" font-size="15" fill="#334155">   issued_at</text>
<text x="568" y="1286" font-family="monospace" font-size="15" fill="#334155">   amount_snapshot</text>
<text x="568" y="1313" font-family="monospace" font-size="15" fill="#334155">FK currency_id</text>
<rect x="1060" y="1100" width="400" height="345" rx="10" fill="white" stroke="#8a9bb0"/>
<text x="1078" y="1130" font-family="monospace" font-size="19" font-weight="bold" fill="#173653">payments</text>
<path d="M 1060 1147 H 1460" stroke="#cbd5e1"/>
<text x="1078" y="1178" font-family="monospace" font-size="15" fill="#334155">PK id</text>
<text x="1078" y="1205" font-family="monospace" font-size="15" fill="#334155">FK bill_id</text>
<text x="1078" y="1232" font-family="monospace" font-size="15" fill="#334155">FK payment_method_id</text>
<text x="1078" y="1259" font-family="monospace" font-size="15" fill="#334155">   amount</text>
<text x="1078" y="1286" font-family="monospace" font-size="15" fill="#334155">   status</text>
<text x="1078" y="1313" font-family="monospace" font-size="15" fill="#334155">   provider_reference ?</text>
<text x="1078" y="1340" font-family="monospace" font-size="15" fill="#334155">   paid_at ?</text>
<text x="40" y="1480" font-family="sans-serif" font-size="12" fill="#44556b">? = nullable. FK externas y columnas omitidas: consultar ERD completo. CREDIT_NOTE referencia factura original; no equivale a reembolso.</text></svg>